<svg xmlns="http://www.w3.org/2000/svg" xmlns:xlink="http://www.w3.org/1999/xlink" version="1.1" width="500" height="500" viewBox="0 0 500 500" xml:space="preserve">
<desc>Created with Fabric.js 3.5.0</desc>
<defs>
</defs>
<rect x="0" y="0" width="100%" height="100%" fill="rgba(255,255,255,0)"/>
<g transform="matrix(1.9447 0 0 1.9447 248.9216 248.9216)" id="464478">
<g style="" vector-effect="non-scaling-stroke">
		<g transform="matrix(1 0 0 1 0 0)">
<rect style="stroke: none; stroke-width: 1; stroke-dasharray: none; stroke-linecap: butt; stroke-dashoffset: 0; stroke-linejoin: miter; stroke-miterlimit: 4; is-custom-font: none; font-file-url: none; fill: rgb(36,41,56); fill-rule: nonzero; opacity: 1;" x="-128" y="-128" rx="60" ry="60" width="256" height="256"/>
</g>
		<g transform="matrix(1 0 0 1 -0.1455 -24.3025)">
<path style="stroke: none; stroke-width: 1; stroke-dasharray: none; stroke-linecap: butt; stroke-dashoffset: 0; stroke-linejoin: miter; stroke-miterlimit: 4; is-custom-font: none; font-file-url: none; fill: rgb(36,41,56); fill-rule: nonzero; opacity: 1;" transform=" translate(-127.8545, -103.6975)" d="M 144.934 38.0615 L 200.709 38 L 107.134 131.526 L 82.7472 155.777 L 55 127.996 L 144.934 38.0615 Z M 144.415 121.569 C 145.139 120.613 146.471 121.085 147.482 120.962 L 200.661 120.975 L 152.194 169.395 L 124.303 141.675 L 144.415 121.569 Z" stroke-linecap="round"/>
</g>
		<g transform="matrix(1 0 0 1 -3.5943 41.4665)">
<path style="stroke: none; stroke-width: 1; stroke-dasharray: none; stroke-linecap: butt; stroke-dashoffset: 0; stroke-linejoin: miter; stroke-miterlimit: 4; is-custom-font: none; font-file-url: none; fill: rgb(36,41,56); fill-rule: nonzero; opacity: 1;" transform=" translate(-124.4057, -169.4665)" d="M 96.5013 169.442 L 124.303 141.675 L 152.194 169.395 L 152.31 169.518 L 124.31 197.258 L 96.5013 169.442 V 169.442 Z" stroke-linecap="round"/>
</g>
		<g transform="matrix(1 0 0 1 34.4955 65.7589)">
<path style="stroke: none; stroke-width: 1; stroke-dasharray: none; stroke-linecap: butt; stroke-dashoffset: 0; stroke-linejoin: miter; stroke-miterlimit: 4; is-custom-font: none; font-file-url: none; fill: rgb(36,41,56); fill-rule: nonzero; opacity: 1;" transform=" translate(-162.4955, -193.7589)" d="M 124.31 197.258 L 152.31 169.518 L 200.681 217.937 C 182.461 217.978 164.247 217.923 146.034 217.964 C 144.996 218.196 144.354 217.247 143.691 216.66 L 124.31 197.258 V 197.258 Z" stroke-linecap="round"/>
</g>
</g>
</g>
<g transform="matrix(1.0182 0 0 1.0182 250.0047 250.0058)" id="591024">
<path style="stroke: none; stroke-width: 1; stroke-dasharray: none; stroke-linecap: butt; stroke-dashoffset: 0; stroke-linejoin: miter; stroke-miterlimit: 4; is-custom-font: none; font-file-url: none; fill: rgb(238,76,44); fill-rule: nonzero; opacity: 1;" vector-effect="non-scaling-stroke" transform=" translate(-128, -154.7176)" d="M 218.281037 90.106412 C 268.572988 140.398363 268.572988 221.075034 218.281037 271.716235 C 169.036835 322.008186 88.0109141 322.008186 37.7189632 271.716235 C -12.5729877 221.424284 -12.5729877 140.398363 37.7189632 90.106412 L 127.825375 0 L 127.825375 45.053206 L 119.443383 53.4351978 L 59.7216917 113.156889 C 22.0027285 150.177353 22.0027285 210.946794 59.7216917 248.665757 C 96.7421555 286.38472 157.511596 286.38472 195.230559 248.665757 C 232.949523 211.645293 232.949523 150.875853 195.230559 113.156889 L 218.281037 90.106412 Z M 173.227831 84.5184175 C 163.969338 84.5184175 156.463847 77.0129263 156.463847 67.7544338 C 156.463847 58.4959413 163.969338 50.9904502 173.227831 50.9904502 C 182.486323 50.9904502 189.991814 58.4959413 189.991814 67.7544338 C 189.991814 77.0129263 182.486323 84.5184175 173.227831 84.5184175 Z" stroke-linecap="round"/>
</g>
</svg>